HIERARCHY
ROOT Hips
{
	OFFSET 0.000000 97.167313 0.000000
	CHANNELS 6 Xposition Yposition Zposition Xrotation Yrotation Zrotation
	JOINT Spine
	{
		OFFSET 0.000000 13.784798 0.064400
		CHANNELS 3 Xrotation Yrotation Zrotation
		JOINT Spine1
		{
			OFFSET 0.000000 12.037903 0.404700
			CHANNELS 3 Xrotation Yrotation Zrotation
			JOINT Spine2
			{
				OFFSET 0.000000 17.795601 0.420200
				CHANNELS 3 Xrotation Yrotation Zrotation
				JOINT Neck
				{
					OFFSET 0.000000 39.131302 11.954600
					CHANNELS 3 Xrotation Yrotation Zrotation
					JOINT Head
					{
						OFFSET 0.000000 14.456192 15.627699
						CHANNELS 3 Xrotation Yrotation Zrotation
						JOINT HeadTop_End
						{
							OFFSET 0.000000 15.703506 7.603401
							CHANNELS 3 Xrotation Yrotation Zrotation
							End Site
							{
								OFFSET 0.000000 17.447403 0.000000
							}
						}
					}
				}
				JOINT LeftShoulder
				{
					OFFSET 17.399500 24.608795 1.168800
					CHANNELS 3 Xrotation Yrotation Zrotation
					JOINT LeftArm
					{
						OFFSET 18.980635 5.765305 1.818600
						CHANNELS 3 Xrotation Yrotation Zrotation
						JOINT LeftForeArm
						{
							OFFSET 49.290169 0.000000 0.000000
							CHANNELS 3 Xrotation Yrotation Zrotation
							JOINT LeftHand
							{
								OFFSET 31.562012 0.000000 0.000000
								CHANNELS 3 Xrotation Yrotation Zrotation
								JOINT LeftHandThumb1
								{
									OFFSET 6.133995 -4.388519 7.076070
									CHANNELS 3 Xrotation Yrotation Zrotation
									JOINT LeftHandThumb2
									{
										OFFSET 6.037666 -3.485840 3.485847
										CHANNELS 3 Xrotation Yrotation Zrotation
										JOINT LeftHandThumb3
										{
											OFFSET 6.496506 -3.750763 3.750761
											CHANNELS 3 Xrotation Yrotation Zrotation
											JOINT LeftHandThumb4
											{
												OFFSET 5.616882 -3.242905 3.242910
												CHANNELS 3 Xrotation Yrotation Zrotation
												End Site
												{
													OFFSET -1.254608 7.132141 0.375429
												}
											}
										}
									}
								}
								JOINT LeftHandPinky1
								{
									OFFSET 18.920792 -0.453171 -11.426712
									CHANNELS 3 Xrotation Yrotation Zrotation
									JOINT LeftHandPinky2
									{
										OFFSET 4.919586 0.000000 0.000000
										CHANNELS 3 Xrotation Yrotation Zrotation
										JOINT LeftHandPinky3
										{
											OFFSET 5.233047 0.000000 0.000000
											CHANNELS 3 Xrotation Yrotation Zrotation
											JOINT LeftHandPinky4
											{
												OFFSET 5.571716 0.000000 0.000000
												CHANNELS 3 Xrotation Yrotation Zrotation
												End Site
												{
													OFFSET -3.459808 4.342407 -0.466164
												}
											}
										}
									}
								}
								JOINT LeftHandRing1
								{
									OFFSET 22.726120 -0.094986 -6.500475
									CHANNELS 3 Xrotation Yrotation Zrotation
									JOINT LeftHandRing2
									{
										OFFSET 6.408615 0.000000 0.000000
										CHANNELS 3 Xrotation Yrotation Zrotation
										JOINT LeftHandRing3
										{
											OFFSET 6.150223 0.000000 0.000000
											CHANNELS 3 Xrotation Yrotation Zrotation
											JOINT LeftHandRing4
											{
												OFFSET 6.145386 0.000000 0.000000
												CHANNELS 3 Xrotation Yrotation Zrotation
												End Site
												{
													OFFSET -3.671402 4.923981 -0.202372
												}
											}
										}
									}
								}
								JOINT LeftHandMiddle1
								{
									OFFSET 23.373947 0.000000 0.000001
									CHANNELS 3 Xrotation Yrotation Zrotation
									JOINT LeftHandMiddle2
									{
										OFFSET 6.996567 0.000000 0.000000
										CHANNELS 3 Xrotation Yrotation Zrotation
										JOINT LeftHandMiddle3
										{
											OFFSET 7.015945 0.000000 0.000000
											CHANNELS 3 Xrotation Yrotation Zrotation
											JOINT LeftHandMiddle4
											{
												OFFSET 7.721573 0.000000 0.000000
												CHANNELS 3 Xrotation Yrotation Zrotation
												End Site
												{
													OFFSET -4.651108 6.158463 0.251582
												}
											}
										}
									}
								}
								JOINT LeftHandIndex1
								{
									OFFSET 21.310577 -0.490082 6.209344
									CHANNELS 3 Xrotation Yrotation Zrotation
									JOINT LeftHandIndex2
									{
										OFFSET 7.536453 0.000000 0.000000
										CHANNELS 3 Xrotation Yrotation Zrotation
										JOINT LeftHandIndex3
										{
											OFFSET 7.512344 0.000000 0.000000
											CHANNELS 3 Xrotation Yrotation Zrotation
											JOINT LeftHandIndex4
											{
												OFFSET 10.212402 0.000000 0.000001
												CHANNELS 3 Xrotation Yrotation Zrotation
												End Site
												{
													OFFSET -5.180801 8.690506 1.388433
												}
											}
										}
									}
								}
							}
						}
					}
				}
				JOINT RightShoulder
				{
					OFFSET -17.399500 24.608795 1.168800
					CHANNELS 3 Xrotation Yrotation Zrotation
					JOINT RightArm
					{
						OFFSET -18.980635 5.765305 1.818600
						CHANNELS 3 Xrotation Yrotation Zrotation
						JOINT RightForeArm
						{
							OFFSET -49.290169 0.000000 0.000000
							CHANNELS 3 Xrotation Yrotation Zrotation
							JOINT RightHand
							{
								OFFSET -31.562012 0.000000 0.000000
								CHANNELS 3 Xrotation Yrotation Zrotation
								JOINT RightHandThumb1
								{
									OFFSET -6.133995 -4.388519 7.076070
									CHANNELS 3 Xrotation Yrotation Zrotation
									JOINT RightHandThumb2
									{
										OFFSET -6.037666 -3.485840 3.485847
										CHANNELS 3 Xrotation Yrotation Zrotation
										JOINT RightHandThumb3
										{
											OFFSET -6.496506 -3.750763 3.750761
											CHANNELS 3 Xrotation Yrotation Zrotation
											JOINT RightHandThumb4
											{
												OFFSET -5.616882 -3.242905 3.242910
												CHANNELS 3 Xrotation Yrotation Zrotation
												End Site
												{
													OFFSET 1.254608 7.132141 0.375429
												}
											}
										}
									}
								}
								JOINT RightHandIndex1
								{
									OFFSET -21.310577 -0.490082 6.209344
									CHANNELS 3 Xrotation Yrotation Zrotation
									JOINT RightHandIndex2
									{
										OFFSET -7.536453 0.000000 0.000000
										CHANNELS 3 Xrotation Yrotation Zrotation
										JOINT RightHandIndex3
										{
											OFFSET -7.512344 0.000000 0.000000
											CHANNELS 3 Xrotation Yrotation Zrotation
											JOINT RightHandIndex4
											{
												OFFSET -10.212402 0.000000 0.000001
												CHANNELS 3 Xrotation Yrotation Zrotation
												End Site
												{
													OFFSET 5.180801 8.690506 1.388433
												}
											}
										}
									}
								}
								JOINT RightHandMiddle1
								{
									OFFSET -23.373947 0.000000 0.000001
									CHANNELS 3 Xrotation Yrotation Zrotation
									JOINT RightHandMiddle2
									{
										OFFSET -6.996567 0.000000 0.000000
										CHANNELS 3 Xrotation Yrotation Zrotation
										JOINT RightHandMiddle3
										{
											OFFSET -7.015945 0.000000 0.000000
											CHANNELS 3 Xrotation Yrotation Zrotation
											JOINT RightHandMiddle4
											{
												OFFSET -7.721573 0.000000 0.000000
												CHANNELS 3 Xrotation Yrotation Zrotation
												End Site
												{
													OFFSET 4.651108 6.158463 0.251582
												}
											}
										}
									}
								}
								JOINT RightHandRing1
								{
									OFFSET -22.726120 -0.094986 -6.500475
									CHANNELS 3 Xrotation Yrotation Zrotation
									JOINT RightHandRing2
									{
										OFFSET -6.408615 0.000000 0.000000
										CHANNELS 3 Xrotation Yrotation Zrotation
										JOINT RightHandRing3
										{
											OFFSET -6.150223 0.000000 0.000000
											CHANNELS 3 Xrotation Yrotation Zrotation
											JOINT RightHandRing4
											{
												OFFSET -6.145386 0.000000 0.000000
												CHANNELS 3 Xrotation Yrotation Zrotation
												End Site
												{
													OFFSET 3.671402 4.923981 -0.202372
												}
											}
										}
									}
								}
								JOINT RightHandPinky1
								{
									OFFSET -18.920792 -0.453171 -11.426712
									CHANNELS 3 Xrotation Yrotation Zrotation
									JOINT RightHandPinky2
									{
										OFFSET -4.919586 0.000000 0.000000
										CHANNELS 3 Xrotation Yrotation Zrotation
										JOINT RightHandPinky3
										{
											OFFSET -5.233047 0.000000 0.000000
											CHANNELS 3 Xrotation Yrotation Zrotation
											JOINT RightHandPinky4
											{
												OFFSET -5.571716 0.000000 0.000000
												CHANNELS 3 Xrotation Yrotation Zrotation
												End Site
												{
													OFFSET 3.459808 4.342407 -0.466164
												}
											}
										}
									}
								}
							}
						}
					}
				}
			}
		}
	}
	JOINT LeftUpLeg
	{
		OFFSET 19.899099 -7.885101 -3.429500
		CHANNELS 3 Xrotation Yrotation Zrotation
		JOINT LeftLeg
		{
			OFFSET 1.745560 -36.997807 10.304700
			CHANNELS 3 Xrotation Yrotation Zrotation
			JOINT LeftFoot
			{
				OFFSET -1.745558 -29.803308 -13.615400
				CHANNELS 3 Xrotation Yrotation Zrotation
				JOINT LeftToeBase
				{
					OFFSET 1.181900 -18.539904 15.226099
					CHANNELS 3 Xrotation Yrotation Zrotation
					JOINT LeftToe_End
					{
						OFFSET -0.863701 1.402801 16.534700
						CHANNELS 3 Xrotation Yrotation Zrotation
						End Site
						{
							OFFSET 0.000000 16.616566 0.000000
						}
					}
				}
			}
		}
	}
	JOINT RightUpLeg
	{
		OFFSET -19.899099 -7.885101 -3.429500
		CHANNELS 3 Xrotation Yrotation Zrotation
		JOINT RightLeg
		{
			OFFSET -1.745560 -36.997807 10.304700
			CHANNELS 3 Xrotation Yrotation Zrotation
			JOINT RightFoot
			{
				OFFSET 1.745558 -29.803308 -13.615400
				CHANNELS 3 Xrotation Yrotation Zrotation
				JOINT RightToeBase
				{
					OFFSET -1.181900 -18.539904 15.226099
					CHANNELS 3 Xrotation Yrotation Zrotation
					JOINT RightToe_End
					{
						OFFSET 0.863701 1.402801 16.534700
						CHANNELS 3 Xrotation Yrotation Zrotation
						End Site
						{
							OFFSET 0.000000 16.616566 0.000000
						}
					}
				}
			}
		}
	}
}
MOTION
Frames: 5
Frame Time: 0.033333
-0.713103 76.953194 8.529055 9.691191 -25.665664 9.921643 13.160115 -0.991360 -0.489508 10.279202 -3.490779 -2.740474 -1.569630 -2.852750 -3.399674 -2.968607 12.726779 3.585688 -10.247183 16.634579 -10.536626 0.000001 -0.000000 -0.000000 0.859456 -15.622354 -7.211057 -17.387162 -25.910080 -27.449955 25.094470 -57.120452 5.541832 6.087689 -6.317416 1.087278 28.949552 -4.378900 16.083946 0.051324 14.597004 -7.535447 4.672372 6.424035 -4.741606 -0.000000 -0.000002 -0.000007 -3.465302 -6.374041 -22.977141 -0.685430 -1.538061 -46.708880 -1.680123 -1.847354 -56.188609 0.000000 0.000004 -0.000002 -5.774884 -3.736797 -44.654226 -0.883211 -1.689912 -49.090762 -0.789107 -1.709708 -50.322416 0.000001 -0.000002 0.000001 1.451613 -8.372233 -41.547525 -0.814032 -2.948169 -59.829896 -0.489218 -1.384860 -27.986507 0.000002 -0.000001 0.000004 4.337318 -6.090112 -22.739829 1.252432 -3.132670 -59.611835 1.183609 -1.718081 -31.323855 -0.000000 0.000003 0.000001 0.716572 5.508097 2.744231 -9.443410 3.404246 45.120769 44.117575 71.730018 -39.605904 -39.948376 -3.435161 -6.466932 55.149505 18.649543 -29.698291 -0.442531 -14.180569 7.313136 21.666951 -29.244524 9.142357 0.000000 0.000001 -0.000001 5.673381 7.584998 36.844113 1.050441 3.824507 68.900223 0.499558 3.026053 62.196474 -0.000001 -0.000002 -0.000006 -0.125727 1.886091 45.000718 -1.169011 3.204656 68.417677 -0.936430 1.813613 41.107541 0.000001 0.000000 -0.000008 -5.312062 1.216620 58.508835 -0.745188 1.667584 48.011244 -0.816460 1.840618 53.666576 -0.000004 0.000002 -0.000001 -7.756836 -9.376450 47.263949 -0.526045 1.541569 45.600552 -0.508187 0.803454 24.986608 -0.000004 0.000001 0.000004 -57.334998 8.091754 11.733022 68.545149 -4.274164 -2.481869 -5.088471 0.227965 -10.868225 5.846412 2.196150 -2.570979 -0.000000 -0.000000 -0.000001 -49.932235 -10.109629 -8.182907 59.966732 -5.237299 2.491640 -21.607677 -2.338041 -11.095354 2.552556 -0.609637 4.789105 -0.000000 -0.000002 0.000000 
-0.806436 78.319992 2.471521 8.291799 -23.557012 7.568299 13.138383 -1.331002 0.045275 10.213210 -4.127638 -2.177523 -1.559575 -3.371813 -2.737339 -2.143868 12.771480 3.271635 -10.473176 16.332744 -9.616557 -0.000001 0.000000 0.000000 0.943913 -18.422386 -6.979849 -17.504037 -27.922157 -25.797623 23.752703 -57.101713 2.776334 4.317995 -6.891682 4.595446 29.884622 -5.079715 16.504262 0.068212 14.643687 -7.523362 5.390015 7.513212 -4.814033 -0.000001 0.000007 -0.000002 -3.652481 -6.304737 -23.292526 -0.728412 -1.593963 -48.102973 -1.623081 -1.836102 -55.266981 -0.000002 -0.000003 0.000001 -5.962028 -3.753339 -45.218957 -0.929416 -1.738845 -50.488321 -0.857814 -1.776335 -52.210086 -0.000001 -0.000003 0.000005 1.318863 -8.455356 -42.389097 -0.922612 -3.011758 -62.300430 -0.574742 -1.507653 -30.956357 -0.000003 0.000001 0.000001 4.220695 -6.075738 -23.059485 1.168727 -3.230790 -62.160718 1.062452 -1.912562 -36.261638 -0.000000 -0.000000 0.000001 0.543739 2.567508 2.857264 -6.949536 1.260261 46.130630 39.672351 69.027087 -35.369346 -38.721364 -2.005156 0.115716 55.149509 18.649538 -29.698287 -0.442531 -14.180571 7.313137 21.666951 -29.244520 9.142349 0.000001 -0.000001 0.000002 5.673376 7.584996 36.844120 1.050438 3.824500 68.900223 0.499558 3.026059 62.196474 -0.000000 -0.000001 -0.000001 -0.125732 1.886084 45.000712 -1.169007 3.204665 68.417677 -0.936430 1.813616 41.107538 -0.000001 0.000001 -0.000008 -5.312064 1.216613 58.508828 -0.745186 1.667581 48.011244 -0.816455 1.840617 53.666576 0.000001 -0.000001 -0.000000 -7.756838 -9.376452 47.263949 -0.526045 1.541565 45.600552 -0.508182 0.803457 24.986603 0.000001 -0.000002 0.000002 -49.033587 11.801261 10.223987 73.961912 -2.005938 -2.496245 -7.617606 1.680169 -6.580464 0.628940 0.343116 4.564746 0.000003 -0.000000 0.000000 -50.117613 -11.687833 -3.205465 53.993141 -10.021406 1.224717 -15.960108 -2.636036 -14.315563 5.499904 0.218038 6.773993 0.000000 0.000001 -0.000000 
-1.029290 80.454742 -4.253723 7.495951 -21.158195 6.175829 13.021837 -1.891508 0.542908 9.922442 -5.396033 -1.903142 -1.975070 -5.143869 -2.804381 -0.153750 13.345128 2.319874 -11.571706 16.102364 -7.755232 0.000000 0.000000 0.000000 1.053434 -20.824221 -6.590126 -17.701965 -28.989587 -24.726036 21.194308 -57.606915 0.143280 2.535454 -9.472401 6.003837 30.992803 -5.900074 17.025727 0.088124 14.698690 -7.509083 6.240492 8.797033 -4.920339 -0.000000 -0.000002 -0.000001 -3.872346 -6.220565 -23.664235 -0.780866 -1.658403 -49.747659 -1.555746 -1.821096 -54.179735 -0.000002 0.000004 -0.000007 -6.183617 -3.768513 -45.885351 -0.985427 -1.794987 -52.137153 -0.941388 -1.851462 -54.437120 -0.000001 -0.000001 0.000003 1.160113 -8.550675 -43.382421 -1.052836 -3.081808 -65.215268 -0.683520 -1.645837 -34.460360 -0.000005 0.000000 0.000004 4.083557 -6.057284 -23.436606 1.068008 -3.345080 -65.167900 0.912824 -2.132880 -42.087564 -0.000000 0.000003 0.000001 0.374432 -0.199224 2.454154 -6.591921 2.875583 48.812667 32.231010 65.865850 -27.606525 -35.694268 -1.270945 4.676961 55.149505 18.649538 -29.698284 -0.442533 -14.180562 7.313136 21.666951 -29.244520 9.142352 0.000001 -0.000001 -0.000000 5.673381 7.584993 36.844120 1.050441 3.824505 68.900216 0.499554 3.026059 62.196481 -0.000000 -0.000002 0.000005 -0.125728 1.886090 45.000715 -1.169009 3.204656 68.417677 -0.936429 1.813614 41.107545 0.000003 0.000002 -0.000004 -5.312061 1.216614 58.508835 -0.745187 1.667581 48.011244 -0.816459 1.840616 53.666576 0.000004 -0.000001 -0.000002 -7.756834 -9.376456 47.263960 -0.526045 1.541566 45.600549 -0.508186 0.803454 24.986601 0.000000 -0.000004 0.000005 -42.470253 12.697077 7.171113 74.787307 -2.079146 -3.059390 -6.878769 0.937689 -5.039306 -0.710354 1.437355 5.031140 -0.000001 0.000000 0.000000 -51.699334 -10.661476 -0.742152 45.963638 -11.711515 0.375576 -4.209273 -5.656983 -12.280567 3.785611 0.077113 3.626704 -0.000001 -0.000003 0.000000 
-1.010516 83.044510 -11.232982 8.427887 -19.432703 5.894672 12.688589 -2.396086 0.897716 9.183182 -6.691598 -1.861213 -2.664003 -6.567580 -3.500411 3.207184 13.972305 1.265316 -13.570394 16.107101 -5.941173 -0.000001 -0.000000 0.000000 1.088285 -22.489429 -6.609315 -17.687137 -28.832704 -23.905046 19.263959 -58.725379 -1.141098 1.673260 -12.884070 6.424844 32.206254 -6.784626 17.625238 0.109847 14.758570 -7.493570 7.172266 10.193120 -5.061989 0.000000 -0.000001 -0.000001 -4.110562 -6.126161 -24.068472 -0.839992 -1.726636 -51.538483 -1.482505 -1.802532 -52.996029 0.000001 0.000002 -0.000005 -6.425786 -3.779880 -46.611089 -1.047985 -1.854074 -53.932396 -1.035282 -1.928960 -56.862090 -0.000003 0.000003 0.000002 0.984657 -8.651136 -44.464497 -1.196878 -3.151951 -68.389086 -0.811162 -1.787594 -38.276001 -0.000004 0.000003 0.000007 3.934828 -6.035539 -23.847162 0.955758 -3.467900 -68.442225 0.742035 -2.362444 -48.431495 -0.000003 0.000003 0.000002 0.245292 -1.880465 2.005644 -5.853820 3.070242 51.631937 29.393183 64.269102 -24.558517 -33.394776 -0.159918 7.946834 55.149502 18.649550 -29.698284 -0.442531 -14.180572 7.313135 21.666951 -29.244520 9.142356 -0.000002 0.000000 0.000001 5.673378 7.584998 36.844113 1.050438 3.824507 68.900223 0.499557 3.026057 62.196474 0.000001 0.000000 -0.000001 -0.125728 1.886088 45.000718 -1.169010 3.204657 68.417677 -0.936429 1.813612 41.107538 -0.000005 0.000002 -0.000004 -5.312062 1.216614 58.508835 -0.745189 1.667578 48.011244 -0.816458 1.840617 53.666576 -0.000000 0.000004 -0.000005 -7.756832 -9.376454 47.263956 -0.526043 1.541565 45.600549 -0.508188 0.803455 24.986601 0.000001 0.000006 -0.000000 -38.386985 11.631897 3.774602 72.300831 -2.946654 -4.201644 -6.443093 0.042525 -6.769234 1.075690 0.755437 3.997469 -0.000001 -0.000000 0.000000 -53.593486 -8.143558 -0.188739 35.390635 -10.139082 0.020319 9.462361 -9.062875 -4.723049 3.483056 -0.045247 -5.179808 -0.000000 -0.000002 0.000000 
-1.162573 84.778137 -17.456959 10.231196 -18.691419 5.781549 12.367324 -2.837551 0.782549 8.544017 -7.275206 -1.639154 -3.727703 -6.973577 -3.272338 5.972109 14.265413 0.623540 -15.547491 16.199158 -4.888349 0.000000 0.000000 -0.000000 0.984225 -22.840694 -7.266551 -18.339280 -29.456748 -23.274252 17.773375 -59.902924 -1.578580 1.149432 -16.716437 4.811239 33.456056 -7.679206 18.272925 0.132015 14.819861 -7.477696 8.133196 11.619180 -5.235284 0.000000 -0.000003 0.000000 -4.352938 -6.026436 -24.481529 -0.902695 -1.794334 -53.370801 -1.407710 -1.781200 -51.785060 -0.000001 0.000005 -0.000003 -6.674449 -3.785819 -47.353794 -1.113856 -1.912287 -55.769342 -1.134202 -2.003477 -59.343429 -0.000001 -0.000001 0.000003 0.802462 -8.750219 -45.572180 -1.346510 -3.217131 -71.636609 -0.951058 -1.922596 -42.180581 0.000001 -0.000000 0.000002 3.783308 -6.011363 -24.267169 0.838010 -3.591801 -71.792713 0.558897 -2.587138 -54.923235 0.000001 0.000003 -0.000003 0.223738 -2.537567 2.321374 -5.187701 2.644731 52.454360 27.598698 63.307432 -22.564934 -31.825840 0.599614 9.760265 55.149512 18.649541 -29.698287 -0.442529 -14.180560 7.313136 21.666951 -29.244524 9.142358 -0.000001 -0.000001 0.000001 5.673379 7.584998 36.844113 1.050436 3.824503 68.900223 0.499562 3.026060 62.196474 -0.000001 0.000000 0.000001 -0.125728 1.886090 45.000718 -1.169009 3.204663 68.417677 -0.936428 1.813614 41.107541 -0.000002 -0.000001 -0.000006 -5.312061 1.216616 58.508835 -0.745188 1.667582 48.011244 -0.816460 1.840614 53.666576 0.000001 -0.000001 -0.000005 -7.756832 -9.376453 47.263953 -0.526044 1.541562 45.600556 -0.508188 0.803452 24.986603 0.000002 0.000004 -0.000003 -35.487795 10.999898 1.166046 68.873367 -3.431929 -5.184733 -7.613439 -0.741933 -6.529517 1.441869 0.747298 2.082436 -0.000002 -0.000000 0.000001 -58.521266 -5.021268 -0.676594 26.355086 -3.230597 -0.140601 24.234541 -1.284007 7.040062 10.817315 -3.593413 -5.236074 -0.000000 -0.000001 0.000000 
